<svg width="400" height="79" viewBox="0 0 400 79" fill="none" xmlns="http://www.w3.org/2000/svg">
<path d="M145.258 26.6268C146.935 26.2824 148.588 25.3947 148.588 25.3947C149.326 25.0486 149.601 25.3191 149.204 26.0165C149.204 26.0165 148.211 28.0741 146.695 29.0298C148.18 28.8434 149.52 28.2992 149.52 28.2992C150.293 28.0365 150.501 28.6605 149.995 29.2917C149.995 29.2917 148.684 31.1182 147.25 32.2083C147.262 32.538 147.268 32.4798 147.268 32.8164C147.268 44.4922 141.376 54.8125 126.379 54.8125C120.743 54.8125 117.725 52.5762 117.725 52.5762C116.27 51.8354 116.435 50.9706 118.052 50.7287C118.052 50.7287 123.482 50.2115 125.994 48.1372C111.625 40.9583 117.486 27.0593 117.486 27.0593C117.542 26.2583 118.096 26.0542 118.689 26.6164C118.689 26.6164 125.156 33.3561 132.749 33.6789C132.623 33.1127 132.56 32.525 132.56 31.9186C132.56 27.6493 135.848 24.1875 139.899 24.1875C142.013 24.1875 143.922 25.1256 145.258 26.6268Z" fill="#1A1A1A"/>
<path d="M184.458 39.539C184.458 30.6579 191.64 23.4584 200.5 23.4584C209.36 23.4584 216.542 30.6579 216.542 39.539C216.542 47.8822 210.203 54.7414 202.09 55.5417C202.134 55.5341 202.177 55.5259 202.22 55.5172V44.1551H206.391L207.015 39.3013H202.22V36.2024C202.22 34.797 202.609 33.8396 204.62 33.8396L207.184 33.8383V29.4972C206.74 29.4378 205.218 29.3059 203.448 29.3059C199.751 29.3059 197.22 31.5677 197.22 35.7219V39.3013H193.039V44.1551H197.22V55.2833C189.934 53.7657 184.458 47.2933 184.458 39.539Z" fill="#1A1A1A"/>
<path d="M267.726 36.3234V41.6752C267.726 42.2281 268.174 42.676 268.727 42.6753C270.597 42.6728 274.606 42.6679 276.52 42.6679C275.142 46.7872 272.999 49.0298 267.726 49.0298C262.389 49.0298 258.223 44.7631 258.223 39.4994C258.223 34.2369 262.389 29.9702 267.726 29.9702C270.547 29.9702 272.37 30.9485 274.041 32.3116C275.379 30.9923 275.268 30.8036 278.672 27.6326C275.782 25.0389 271.941 23.4584 267.726 23.4584C258.742 23.4584 251.458 30.6399 251.458 39.4994C251.458 48.3589 258.742 55.5417 267.726 55.5417C281.154 55.5417 284.436 44.011 283.349 36.3234H267.726Z" fill="#1A1A1A"/>
</svg>
