<svg width="400" height="79" viewBox="0 0 400 79" fill="none" xmlns="http://www.w3.org/2000/svg">
<path d="M145.258 26.6268C146.935 26.2824 148.588 25.3947 148.588 25.3947C149.326 25.0486 149.601 25.3191 149.204 26.0165C149.204 26.0165 148.211 28.0741 146.695 29.0298C148.18 28.8434 149.52 28.2992 149.52 28.2992C150.293 28.0365 150.501 28.6605 149.995 29.2917C149.995 29.2917 148.684 31.1182 147.25 32.2083C147.262 32.538 147.268 32.4798 147.268 32.8164C147.268 44.4922 141.376 54.8125 126.379 54.8125C120.743 54.8125 117.725 52.5762 117.725 52.5762C116.27 51.8354 116.435 50.9706 118.052 50.7287C118.052 50.7287 123.482 50.2115 125.994 48.1372C111.625 40.9583 117.486 27.0593 117.486 27.0593C117.542 26.2583 118.096 26.0542 118.689 26.6164C118.689 26.6164 125.156 33.3561 132.749 33.6789C132.623 33.1127 132.56 32.525 132.56 31.9186C132.56 27.6493 135.848 24.1875 139.899 24.1875C142.013 24.1875 143.922 25.1256 145.258 26.6268Z" fill="#1A1A1A"/>
<path d="M184.458 39.5389C184.458 30.6578 191.64 23.4583 200.5 23.4583C209.36 23.4583 216.542 30.6578 216.542 39.5389C216.542 47.8821 210.203 54.7413 202.09 55.5416C202.134 55.5339 202.177 55.5258 202.22 55.517V44.155H206.391L207.015 39.3012H202.22V36.2023C202.22 34.7969 202.609 33.8395 204.62 33.8395L207.184 33.8382V29.4971C206.74 29.4377 205.218 29.3058 203.448 29.3058C199.751 29.3058 197.22 31.5676 197.22 35.7218V39.3012H193.039V44.155H197.22V55.2832C189.934 53.7655 184.458 47.2932 184.458 39.5389Z" fill="#1A1A1A"/>
<path d="M267.726 36.3233V41.6751C267.726 42.2279 268.174 42.6759 268.727 42.6752C270.597 42.6727 274.606 42.6678 276.52 42.6678C275.142 46.787 272.999 49.0297 267.726 49.0297C262.389 49.0297 258.223 44.763 258.223 39.4993C258.223 34.2368 262.389 29.9701 267.726 29.9701C270.547 29.9701 272.37 30.9484 274.041 32.3115C275.379 30.9921 275.268 30.8035 278.672 27.6325C275.782 25.0387 271.941 23.4583 267.726 23.4583C258.742 23.4583 251.458 30.6398 251.458 39.4993C251.458 48.3588 258.742 55.5416 267.726 55.5416C281.154 55.5416 284.436 44.0109 283.349 36.3233H267.726Z" fill="#1A1A1A"/>
</svg>
