<svg width="400" height="79" viewBox="0 0 400 79" fill="none" xmlns="http://www.w3.org/2000/svg">
<path d="M145.258 26.6268C146.935 26.2824 148.588 25.3947 148.588 25.3947C149.326 25.0486 149.601 25.3191 149.204 26.0165C149.204 26.0165 148.211 28.0741 146.695 29.0298C148.18 28.8434 149.52 28.2992 149.52 28.2992C150.293 28.0365 150.501 28.6605 149.995 29.2917C149.995 29.2917 148.684 31.1182 147.25 32.2083C147.262 32.538 147.268 32.4798 147.268 32.8164C147.268 44.4922 141.376 54.8125 126.379 54.8125C120.743 54.8125 117.725 52.5762 117.725 52.5762C116.27 51.8354 116.435 50.9706 118.052 50.7287C118.052 50.7287 123.482 50.2115 125.994 48.1372C111.625 40.9583 117.486 27.0593 117.486 27.0593C117.542 26.2583 118.096 26.0542 118.689 26.6164C118.689 26.6164 125.156 33.3561 132.749 33.6789C132.623 33.1127 132.56 32.525 132.56 31.9186C132.56 27.6493 135.848 24.1875 139.899 24.1875C142.013 24.1875 143.922 25.1256 145.258 26.6268Z" fill="#1A1A1A"/>
<path d="M184.458 39.5392C184.458 30.6581 191.64 23.4585 200.5 23.4585C209.359 23.4585 216.542 30.6581 216.542 39.5392C216.542 47.8824 210.203 54.7416 202.09 55.5418C202.133 55.5342 202.177 55.526 202.22 55.5173V44.1552H206.391L207.015 39.3015H202.22V36.2025C202.22 34.7971 202.609 33.8397 204.62 33.8397L207.184 33.8384V29.4973C206.74 29.438 205.218 29.306 203.447 29.306C199.751 29.306 197.22 31.5678 197.22 35.7221V39.3015H193.039V44.1552H197.22V55.2834C189.933 53.7658 184.458 47.2934 184.458 39.5392Z" fill="#1A1A1A"/>
<path d="M267.726 36.3236V41.6754C267.726 42.2282 268.174 42.6761 268.726 42.6754C270.597 42.673 274.606 42.668 276.52 42.668C275.142 46.7873 272.999 49.03 267.726 49.03C262.389 49.03 258.223 44.7633 258.223 39.4995C258.223 34.2371 262.389 29.9704 267.726 29.9704C270.547 29.9704 272.37 30.9486 274.041 32.3117C275.379 30.9924 275.267 30.8037 278.671 27.6327C275.781 25.039 271.941 23.4585 267.726 23.4585C258.742 23.4585 251.458 30.64 251.458 39.4995C251.458 48.359 258.742 55.5418 267.726 55.5418C281.154 55.5418 284.436 44.0111 283.348 36.3236H267.726Z" fill="#1A1A1A"/>
</svg>
