<svg width="400" height="79" viewBox="0 0 400 79" fill="none" xmlns="http://www.w3.org/2000/svg">
<path d="M145.258 26.6268C146.935 26.2824 148.588 25.3947 148.588 25.3947C149.326 25.0486 149.601 25.3191 149.204 26.0165C149.204 26.0165 148.211 28.0741 146.695 29.0298C148.18 28.8434 149.52 28.2992 149.52 28.2992C150.293 28.0365 150.501 28.6605 149.995 29.2917C149.995 29.2917 148.684 31.1182 147.25 32.2083C147.262 32.538 147.268 32.4798 147.268 32.8164C147.268 44.4922 141.376 54.8125 126.379 54.8125C120.743 54.8125 117.725 52.5762 117.725 52.5762C116.27 51.8354 116.435 50.9706 118.052 50.7287C118.052 50.7287 123.482 50.2115 125.994 48.1372C111.625 40.9583 117.486 27.0593 117.486 27.0593C117.542 26.2583 118.096 26.0542 118.689 26.6164C118.689 26.6164 125.156 33.3561 132.749 33.6789C132.623 33.1127 132.56 32.525 132.56 31.9186C132.56 27.6493 135.848 24.1875 139.899 24.1875C142.013 24.1875 143.922 25.1256 145.258 26.6268Z" fill="#1A1A1A"/>
<path d="M184.458 39.5387C184.458 30.6576 191.64 23.458 200.5 23.458C209.36 23.458 216.542 30.6576 216.542 39.5387C216.542 47.8819 210.203 54.7411 202.09 55.5413C202.134 55.5337 202.177 55.5255 202.22 55.5168V44.1548H206.391L207.015 39.301H202.22V36.202C202.22 34.7966 202.609 33.8392 204.62 33.8392L207.184 33.838V29.4968C206.74 29.4375 205.218 29.3055 203.448 29.3055C199.751 29.3055 197.22 31.5673 197.22 35.7216V39.301H193.039V44.1548H197.22V55.2829C189.934 53.7653 184.458 47.2929 184.458 39.5387Z" fill="#1A1A1A"/>
<path d="M267.726 36.3231V41.6749C267.726 42.2277 268.174 42.6757 268.727 42.6749C270.597 42.6725 274.606 42.6675 276.52 42.6675C275.142 46.7868 272.999 49.0295 267.726 49.0295C262.389 49.0295 258.223 44.7628 258.223 39.4991C258.223 34.2366 262.389 29.9699 267.726 29.9699C270.547 29.9699 272.37 30.9482 274.041 32.3113C275.379 30.9919 275.268 30.8032 278.672 27.6323C275.782 25.0385 271.941 23.458 267.726 23.458C258.742 23.458 251.458 30.6396 251.458 39.4991C251.458 48.3585 258.742 55.5413 267.726 55.5413C281.154 55.5413 284.436 44.0106 283.349 36.3231H267.726Z" fill="#1A1A1A"/>
</svg>
