<svg width="399" height="20" viewBox="0 0 399 20" fill="none" xmlns="http://www.w3.org/2000/svg">
<line y1="-0.5" x2="170.001" y2="-0.5" transform="matrix(-0.999998 -0.00220336 0.0157023 -0.999877 399 9.85834)" stroke="#2DD3E3"/>
<line y1="-0.5" x2="170.001" y2="-0.5" transform="matrix(-0.999998 -0.00220372 0.0156997 -0.999877 171 9.4837)" stroke="#2DD3E3"/>
<path d="M196.839 19.126C195.675 19.126 194.619 18.856 193.671 18.316C192.723 17.764 191.973 17.002 191.421 16.03C190.881 15.046 190.611 13.936 190.611 12.7C190.611 11.464 190.881 10.36 191.421 9.388C191.973 8.404 192.723 7.642 193.671 7.102C194.619 6.55 195.675 6.274 196.839 6.274C198.015 6.274 199.077 6.55 200.025 7.102C200.973 7.642 201.717 8.404 202.257 9.388C202.797 10.36 203.067 11.464 203.067 12.7C203.067 13.936 202.797 15.046 202.257 16.03C201.717 17.002 200.973 17.764 200.025 18.316C199.077 18.856 198.015 19.126 196.839 19.126ZM196.839 18.028C197.775 18.028 198.615 17.812 199.359 17.38C200.103 16.948 200.691 16.33 201.123 15.526C201.555 14.71 201.771 13.768 201.771 12.7C201.771 11.632 201.555 10.696 201.123 9.892C200.691 9.088 200.103 8.47 199.359 8.038C198.615 7.606 197.775 7.39 196.839 7.39C195.903 7.39 195.063 7.606 194.319 8.038C193.575 8.47 192.987 9.088 192.555 9.892C192.123 10.696 191.907 11.632 191.907 12.7C191.907 13.768 192.123 14.71 192.555 15.526C192.987 16.33 193.575 16.948 194.319 17.38C195.063 17.812 195.903 18.028 196.839 18.028ZM206.533 10.918C206.809 10.306 207.229 9.832 207.793 9.496C208.369 9.16 209.071 8.992 209.899 8.992V10.306H209.557C208.645 10.306 207.913 10.552 207.361 11.044C206.809 11.536 206.533 12.358 206.533 13.51V19H205.273V9.172H206.533V10.918Z" fill="#1D6B87"/>
</svg>
