<svg width="360" height="234" viewBox="0 0 360 234" fill="none" xmlns="http://www.w3.org/2000/svg">
<path d="M2.5 223.355C2.5 227.497 5.85784 230.855 9.99999 230.855H17.7273H20.2273V228.355H30.6818V230.855H33.1818H48.6364H51.1364V228.355H61.5909V230.855H64.0909H79.5454H82.0454V228.355H92.5V230.855H95H110.455H112.955V228.355H123.409V230.855H125.909H141.364H143.864V228.355H154.318V230.855H156.818H172.273H174.773V228.355H185.227V230.855H187.727H203.182H205.682V228.355H216.136V230.855H218.636H234.091H236.591V228.355H247.045V230.855H249.545H265H267.5V228.355H277.955V230.855H280.455H295.909H298.409V228.355H308.864V230.855H311.364H326.818H329.318V228.355H339.773V230.855H342.273H350C354.142 230.855 357.5 227.497 357.5 223.355V215.735V213.235H355V202.996H357.5V200.496V185.256V182.756H355V172.516H357.5V170.016V154.777V152.277H355V142.037H357.5V139.537V124.297V121.797H355V111.558H357.5V109.058V93.8181V91.3181H355V81.0785H357.5V78.5785V63.3388V60.8388H355V50.5992H357.5V48.0992V32.8595V30.3595H355V20.1199H357.5V17.6199V10C357.5 5.85788 354.142 2.5 350 2.5H342.273H339.773V5H329.318V2.5H326.818H311.364H308.864V5H298.409V2.5H295.909H280.455H277.955V5H267.5V2.5H265H249.545H247.045V5H236.591V2.5H234.091H218.636H216.136V5H205.682V2.5H203.182H187.727H185.227V5H174.773V2.5H172.273H156.818H154.318V5H143.864V2.5H141.364H125.909H123.409V5H112.955V2.5H110.455H95H92.5V5H82.0455V2.5H79.5455H64.0909H61.5909V5H51.1363V2.5H48.6363H33.1818H30.6818V5H20.2272V2.5H17.7272H10C5.85787 2.5 2.5 5.85786 2.5 9.99999V17.6198V20.1198H5V30.3595H2.5V32.8595V48.0992V50.5992H5V60.8388H2.5V63.3388V78.5785V81.0785H5V91.3181H2.5V93.8181V109.058V111.558H5V121.797H2.5V124.297V139.537V142.037H5V152.277H2.5V154.777V170.016V172.516H5V182.756H2.5V185.256V200.496V202.996H5V213.235H2.5V215.735V223.355Z" fill="#5673DC" stroke="#2DD3E3" stroke-width="5" stroke-linecap="square" stroke-dasharray="15 15"/>
<mask id="mask0_604_23" style="mask-type:alpha" maskUnits="userSpaceOnUse" x="5" y="5" width="351" height="224">
<rect x="5.32227" y="5" width="350" height="223.355" rx="5" fill="#4BA7DB"/>
</mask>
<g mask="url(#mask0_604_23)">
<path d="M354.816 30C312.669 158.258 70.4408 12.7303 2.92839 200.629H-9V244.145H354.816V30Z" fill="#3558D5"/>
</g>
</svg>
