<svg width="399" height="77" viewBox="0 0 399 77" fill="none" xmlns="http://www.w3.org/2000/svg">
<path d="M136.5 58.7552C136.5 49.6203 143.887 42.2151 153 42.2151C162.113 42.2151 169.5 49.6203 169.5 58.7552C169.5 67.3368 162.98 74.3919 154.636 75.2151C154.68 75.2072 154.725 75.1988 154.769 75.1898V63.5032H159.059L159.701 58.5107H154.769V55.3232C154.769 53.8777 155.17 52.8929 157.238 52.8929L159.875 52.8916V48.4264C159.418 48.3654 157.853 48.2297 156.032 48.2297C152.23 48.2297 149.626 50.5561 149.626 54.829V58.5107H145.326V63.5032H149.626V74.9493C142.132 73.3883 136.5 66.731 136.5 58.7552Z" fill="#2DD3E3"/>
<path d="M247.232 55.4477V60.981C247.232 61.5339 247.679 61.9818 248.232 61.9811C250.143 61.9786 254.299 61.9735 256.278 61.9735C254.86 66.2104 252.657 68.5172 247.232 68.5172C241.743 68.5172 237.458 64.1286 237.458 58.7144C237.458 53.3016 241.743 48.913 247.232 48.913C250.134 48.913 252.009 49.9192 253.728 51.3213C255.104 49.9642 254.989 49.7702 258.491 46.5086C255.518 43.8407 251.568 42.2151 247.232 42.2151C237.992 42.2151 230.5 49.6018 230.5 58.7144C230.5 67.8271 237.992 75.2151 247.232 75.2151C261.044 75.2151 264.42 63.3549 263.301 55.4477H247.232Z" fill="#2DD3E3"/>
<mask id="mask0_279_4957" style="mask-type:luminance" maskUnits="userSpaceOnUse" x="230" y="42" width="34" height="34">
<path d="M247.232 55.4477V60.981C247.232 61.5339 247.679 61.9818 248.232 61.9811C250.143 61.9786 254.299 61.9735 256.278 61.9735C254.86 66.2104 252.657 68.5172 247.232 68.5172C241.743 68.5172 237.458 64.1286 237.458 58.7144C237.458 53.3016 241.743 48.913 247.232 48.913C250.134 48.913 252.009 49.9192 253.728 51.3213C255.104 49.9642 254.989 49.7702 258.491 46.5086C255.518 43.8407 251.568 42.2151 247.232 42.2151C237.992 42.2151 230.5 49.6018 230.5 58.7144C230.5 67.8271 237.992 75.2151 247.232 75.2151C261.044 75.2151 264.42 63.3549 263.301 55.4477H247.232Z" fill="white"/>
</mask>
<g mask="url(#mask0_279_4957)">
</g>
<line y1="-0.5" x2="170.001" y2="-0.5" transform="matrix(-0.999999 -0.00169566 0.020402 -0.999792 399 14.0768)" stroke="#2DD3E3"/>
<line y1="-0.5" x2="170.001" y2="-0.5" transform="matrix(-0.999999 -0.00169566 0.020402 -0.999792 171 13.7886)" stroke="#2DD3E3"/>
<path d="M196.839 19.8411C195.675 19.8411 194.619 19.5711 193.671 19.0311C192.723 18.4791 191.973 17.7171 191.421 16.7451C190.881 15.7611 190.611 14.6511 190.611 13.4151C190.611 12.1791 190.881 11.0751 191.421 10.1031C191.973 9.11909 192.723 8.35709 193.671 7.81709C194.619 7.26509 195.675 6.98909 196.839 6.98909C198.015 6.98909 199.077 7.26509 200.025 7.81709C200.973 8.35709 201.717 9.11909 202.257 10.1031C202.797 11.0751 203.067 12.1791 203.067 13.4151C203.067 14.6511 202.797 15.7611 202.257 16.7451C201.717 17.7171 200.973 18.4791 200.025 19.0311C199.077 19.5711 198.015 19.8411 196.839 19.8411ZM196.839 18.7431C197.775 18.7431 198.615 18.5271 199.359 18.0951C200.103 17.6631 200.691 17.0451 201.123 16.2411C201.555 15.4251 201.771 14.4831 201.771 13.4151C201.771 12.3471 201.555 11.4111 201.123 10.6071C200.691 9.80309 200.103 9.18509 199.359 8.75309C198.615 8.32109 197.775 8.10509 196.839 8.10509C195.903 8.10509 195.063 8.32109 194.319 8.75309C193.575 9.18509 192.987 9.80309 192.555 10.6071C192.123 11.4111 191.907 12.3471 191.907 13.4151C191.907 14.4831 192.123 15.4251 192.555 16.2411C192.987 17.0451 193.575 17.6631 194.319 18.0951C195.063 18.5271 195.903 18.7431 196.839 18.7431ZM206.532 11.6331C206.808 11.0211 207.228 10.5471 207.792 10.2111C208.368 9.87509 209.07 9.70709 209.898 9.70709V11.0211H209.556C208.644 11.0211 207.912 11.2671 207.36 11.7591C206.808 12.2511 206.532 13.0731 206.532 14.2251V19.7151H205.272V9.88709H206.532V11.6331Z" fill="#1D6B87"/>
</svg>
