<svg width="45" height="45" viewBox="0 0 45 45" fill="none" xmlns="http://www.w3.org/2000/svg">
<g clip-path="url(#clip0_604_86)">
<path d="M4.6875 45H40.3125C42.8981 45 45 42.8981 45 40.3125V4.6875C45 2.10188 42.8981 0 40.3125 0H4.6875C2.10188 0 0 2.10188 0 4.6875V40.3125C0 42.8981 2.10188 45 4.6875 45ZM40.3125 1.875C41.8631 1.875 43.125 3.13687 43.125 4.6875V40.3125C43.125 41.8631 41.8631 43.125 40.3125 43.125H4.6875C3.13688 43.125 1.875 41.8631 1.875 40.3125V4.6875C1.875 3.13687 3.13688 1.875 4.6875 1.875H40.3125Z" fill="black"/>
<path d="M29.0625 35.6251C29.3137 35.6251 29.565 35.5238 29.7487 35.3251C30.1012 34.9464 30.0806 34.352 29.7 34.0014L17.3137 22.5001L29.7 10.9988C30.0806 10.6482 30.1031 10.0538 29.7487 9.67509C29.3943 9.29259 28.8 9.27384 28.425 9.62634L15.3 21.8138C15.1087 21.992 15 22.2395 15 22.5001C15 22.7607 15.1087 23.0082 15.3 23.1863L28.425 35.3738C28.605 35.5426 28.8337 35.6251 29.0625 35.6251Z" fill="black"/>
</g>
<defs>
<clipPath id="clip0_604_86">
<rect width="45" height="45" fill="white" transform="matrix(-1 0 0 1 45 0)"/>
</clipPath>
</defs>
</svg>
