<svg width="45" height="45" viewBox="0 0 45 45" fill="none" xmlns="http://www.w3.org/2000/svg">
<g clip-path="url(#clip0_279_6312)">
<path d="M4.6875 45H40.3125C42.8981 45 45 42.8981 45 40.3125V4.6875C45 2.10188 42.8981 0 40.3125 0H4.6875C2.10188 0 0 2.10188 0 4.6875V40.3125C0 42.8981 2.10188 45 4.6875 45ZM40.3125 1.875C41.8631 1.875 43.125 3.13687 43.125 4.6875V40.3125C43.125 41.8631 41.8631 43.125 40.3125 43.125H4.6875C3.13688 43.125 1.875 41.8631 1.875 40.3125V4.6875C1.875 3.13687 3.13688 1.875 4.6875 1.875H40.3125Z" fill="black"/>
<path d="M29.0623 35.6251C29.3136 35.6251 29.5648 35.5238 29.7486 35.3251C30.1011 34.9464 30.0805 34.352 29.6998 34.0014L17.3136 22.5001L29.6998 10.9988C30.0805 10.6482 30.103 10.0538 29.7486 9.67509C29.3942 9.29259 28.7998 9.27384 28.4248 9.62634L15.2998 21.8138C15.1086 21.992 14.9998 22.2395 14.9998 22.5001C14.9998 22.7607 15.1086 23.0082 15.2998 23.1863L28.4248 35.3738C28.6048 35.5426 28.8336 35.6251 29.0623 35.6251Z" fill="black"/>
</g>
<defs>
<clipPath id="clip0_279_6312">
<rect width="45" height="45" fill="white" transform="matrix(-1 0 0 1 45 0)"/>
</clipPath>
</defs>
</svg>
