<svg width="20" height="14" viewBox="0 0 20 14" fill="none" xmlns="http://www.w3.org/2000/svg">
<path d="M6.83873 13.8411C5.67473 13.8411 4.61873 13.5711 3.67073 13.0311C2.72273 12.4791 1.97273 11.7171 1.42073 10.7451C0.880729 9.76109 0.610729 8.65109 0.610729 7.41509C0.610729 6.17909 0.880729 5.07509 1.42073 4.10309C1.97273 3.11909 2.72273 2.35709 3.67073 1.81709C4.61873 1.26509 5.67473 0.989088 6.83873 0.989088C8.01473 0.989088 9.07673 1.26509 10.0247 1.81709C10.9727 2.35709 11.7167 3.11909 12.2567 4.10309C12.7967 5.07509 13.0667 6.17909 13.0667 7.41509C13.0667 8.65109 12.7967 9.76109 12.2567 10.7451C11.7167 11.7171 10.9727 12.4791 10.0247 13.0311C9.07673 13.5711 8.01473 13.8411 6.83873 13.8411ZM6.83873 12.7431C7.77473 12.7431 8.61473 12.5271 9.35873 12.0951C10.1027 11.6631 10.6907 11.0451 11.1227 10.2411C11.5547 9.42509 11.7707 8.48309 11.7707 7.41509C11.7707 6.34709 11.5547 5.41109 11.1227 4.60709C10.6907 3.80309 10.1027 3.18509 9.35873 2.75309C8.61473 2.32109 7.77473 2.10509 6.83873 2.10509C5.90273 2.10509 5.06273 2.32109 4.31873 2.75309C3.57473 3.18509 2.98673 3.80309 2.55473 4.60709C2.12273 5.41109 1.90673 6.34709 1.90673 7.41509C1.90673 8.48309 2.12273 9.42509 2.55473 10.2411C2.98673 11.0451 3.57473 11.6631 4.31873 12.0951C5.06273 12.5271 5.90273 12.7431 6.83873 12.7431ZM16.5323 5.63309C16.8083 5.02109 17.2283 4.54709 17.7923 4.21109C18.3683 3.87509 19.0703 3.70709 19.8983 3.70709V5.02109H19.5563C18.6443 5.02109 17.9123 5.26709 17.3603 5.75909C16.8083 6.25109 16.5323 7.07309 16.5323 8.22509V13.7151H15.2723V3.88709H16.5323V5.63309Z" fill="#1D6B87"/>
</svg>
