<svg width="60" height="20" viewBox="0 0 60 20" fill="none" xmlns="http://www.w3.org/2000/svg">
<path d="M30.96 6.17988C30.9 8.87988 33.36 10.3799 35.22 11.2799C37.08 12.1799 37.74 12.7799 37.74 13.6199C37.74 14.8799 36.24 15.4199 34.86 15.4799C32.4 15.5399 31.02 14.8199 29.88 14.2799L28.98 18.3599C30.12 18.8999 32.22 19.3199 34.38 19.3799C39.48 19.3799 42.78 16.8599 42.84 12.9599C42.84 8.03989 36 7.73988 36.06 5.51988C36.06 4.85988 36.72 4.13989 38.1 3.95989C38.82 3.83989 40.68 3.77989 42.9 4.79989L43.74 0.839884C42.6 0.419884 41.1 -0.000112534 39.18 -0.000112534C34.38 -0.000112534 31.02 2.51988 30.96 6.17988ZM51.9 0.299887C51 0.299887 50.16 0.839884 49.86 1.67988L42.54 19.0199H47.64L48.66 16.1999H54.9L55.5 19.0199H60L56.1 0.299887H51.9ZM52.62 5.39989L54.06 12.4199H50.04L52.62 5.39989ZM24.84 0.299887L20.82 19.0199H25.68L29.7 0.299887H24.84ZM17.64 0.299887L12.6 13.0199L10.56 2.21988C10.32 1.01988 9.36 0.299887 8.34 0.299887H0.119989L0 0.839884C1.68 1.19988 3.6 1.79988 4.8 2.45989C5.52 2.81989 5.7 3.17988 5.94 4.07988L9.77999 19.0199H14.88L22.74 0.299887H17.64Z" fill="#2DD3E3"/>
</svg>
